# xmcd
#
# Track frame offsets: 
#        150
#        5950
#        17450
#        32225
#        38825
#        51225
#        60275
#        70875
#        86075
#        93225
#        105225
#        120025
#        127275
#        136750
#        151400
#        158725
#
# Disc length: 2246 seconds
#
# Revision: 0
# Processed by: cddbd v1.5.2PL0 Copyright (c) Steve Scherf et al.
# Submitted via: ExactAudioCopy v0.99pb4
#
DISCID=c308c410
DTITLE=Thom Bresh and Merle Travis - Me and Merle
DYEAR=2000
DGENRE=Instrumental
TTITLE0=Cannon Ball Rag (1975)
TTITLE1=Way Down Yonder In New Orleans (1975)
TTITLE2=Annie Lou (1981)
TTITLE3=Nine Pound Hammer (1975)
TTITLE4=Jelly Roll Blues (1981)
TTITLE5=Muskrat Ramble (1975)
TTITLE6=The Entertainer (1975)
TTITLE7=My Baby's So Sweet (1981)
TTITLE8=Ma, She's Makin Eyes At Me (1974)
TTITLE9=The Waltz You Saved For Me (1974)
TTITLE10=Beer Drinkin' Woman (1981)
TTITLE11=Somebody Stole My Gal (1974)
TTITLE12=Who's Sorry Now (1975)
TTITLE13=Getting Old (1981)
TTITLE14=Cuddle Up A Little Closer (1974)
TTITLE15=Old Black Buck (1981)
EXTD=
EXTT0=
EXTT1=
EXTT2=
EXTT3=
EXTT4=
EXTT5=
EXTT6=
EXTT7=
EXTT8=
EXTT9=
EXTT10=
EXTT11=
EXTT12=
EXTT13=
EXTT14=
EXTT15=
PLAYORDER=
